<svg id="Layer_1" data-name="Layer 1" xmlns="http://www.w3.org/2000/svg" viewBox="0 0 790.24 439.41"><defs><clipPath id="clip-path" transform="translate(-195.07 -94.91)"><path class="cls-1" d="M315.71 233.55h77.28v4.21h-77.28z"/></clipPath><clipPath id="clip-path-2" transform="translate(-195.07 -94.91)"><path class="cls-1" d="M315.74 103.15h31.3v4.68h-31.3z"/></clipPath><clipPath id="clip-path-3" transform="translate(-195.07 -94.91)"><path class="cls-1" d="M315.72 116.29h48.56v5h-48.56z"/></clipPath><clipPath id="clip-path-4" transform="translate(-195.07 -94.91)"><path class="cls-1" d="M315.68 129.52h203.79v4.31H315.68z"/></clipPath><clipPath id="clip-path-5" transform="translate(-195.07 -94.91)"><path class="cls-1" d="M315.73 142.85h1.74v4.14h-1.74z"/></clipPath><clipPath id="clip-path-6" transform="translate(-195.07 -94.91)"><path class="cls-1" d="M315.73 168.93h9.88v3.97h-9.88z"/></clipPath><clipPath id="clip-path-7" transform="translate(-195.07 -94.91)"><path class="cls-1" d="M315.74 181.68h326.21v4.07H315.74z"/></clipPath><clipPath id="clip-path-8" transform="translate(-195.07 -94.91)"><path class="cls-1" d="M315.72 207.58h77.91v4.41h-77.91z"/></clipPath><clipPath id="clip-path-9" transform="translate(-195.07 -94.91)"><path class="cls-1" d="M315.67 219.52h605.22v6H315.67z"/></clipPath><clipPath id="clip-path-10" transform="translate(-195.07 -94.91)"><path class="cls-1" d="M315.73 246.71h397.5v4.06h-397.5z"/></clipPath><clipPath id="clip-path-11" transform="translate(-195.07 -94.91)"><path class="cls-1" d="M315.73 259.15h15.14v4.5h-15.14z"/></clipPath><clipPath id="clip-path-12" transform="translate(-195.07 -94.91)"><path class="cls-1" d="M315.71 272.6h1.44v4.12h-1.44z"/></clipPath><clipPath id="clip-path-13" transform="translate(-195.07 -94.91)"><path class="cls-1" d="M315.71 285.51h9.77v4.46h-9.77z"/></clipPath><clipPath id="clip-path-14" transform="translate(-195.07 -94.91)"><path class="cls-1" d="M315.74 298.85h87.2v4.12h-87.2z"/></clipPath><clipPath id="clip-path-15" transform="translate(-195.07 -94.91)"><path class="cls-1" d="M315.74 324.7h9.6v3.8h-9.6z"/></clipPath><clipPath id="clip-path-16" transform="translate(-195.07 -94.91)"><path class="cls-1" d="M315.72 376.1h419.25v4.76H315.72z"/></clipPath><clipPath id="clip-path-17" transform="translate(-195.07 -94.91)"><path class="cls-1" d="M315.71 389.28h1.66v4.11h-1.66z"/></clipPath><clipPath id="clip-path-18" transform="translate(-195.07 -94.91)"><path class="cls-1" d="M315.73 415.56h.4v3.71h-.4z"/></clipPath><clipPath id="clip-path-19" transform="translate(-195.07 -94.91)"><path class="cls-1" d="M315.74 428.49h6.43v4.07h-6.43z"/></clipPath><style>.cls-1{fill:none}.cls-11,.cls-2,.cls-8{font-size:8px}.cls-2,.cls-6,.cls-7{fill:#06596c}.cls-11,.cls-2,.cls-4,.cls-6,.cls-8{font-family:DecimaMonoW01-Regular}.cls-4,.cls-6{font-size:7.87px}.cls-4{fill:#095a6c}.cls-7{stroke:#4e4e4e;stroke-miterlimit:10}.cls-8{fill:#f15b6d}.cls-11{fill:#f15c6d}</style></defs><text class="cls-2" transform="translate(119.87 259.94)">+</text><text class="cls-2" transform="translate(119.23 247.03)">+++++++++++++++++++++++++++++++++++++++++++++++++++++++++++++++++++++++++++++++++++++++++++++++++++++</text><text class="cls-2" transform="translate(119.42 221.16)">+++++++++++++++++++++++</text><g clip-path="url(#clip-path)"><text class="cls-2" transform="translate(118.62 143.27)">+++++++++++++++++</text></g><text class="cls-2" transform="translate(119.83 104.18)">++++++++++++++++++++++++++++++++++++++++++++++++++++++++++++++++++++++++++++++++++++++++++++</text><text class="cls-2" transform="translate(119.55 65.42)">++++++++++++++</text><text class="cls-2" transform="translate(43.26 13.58)">Rabies (2000BC)</text><text class="cls-4" transform="translate(697.72 292.05)">annual global <tspan x="0" y="9.45">fatalities or </tspan><tspan x="0" y="18.89">total fatalities </tspan><tspan x="0" y="28.34">during outbreak</tspan></text><text transform="translate(659.63 290.63)" font-size="5.25" fill="#095a6c" font-family="DecimaMonoW01-Regular">+++++++++++</text><text class="cls-4" transform="translate(659.42 274.99)">(year)= year of discovery</text><text class="cls-6" transform="translate(117.8 375.05)">0</text><text class="cls-6" transform="translate(214.92 375.05)">200000</text><text class="cls-6" transform="translate(323.84 375.05)">400000</text><text class="cls-6" transform="translate(432.77 375.05)">600000</text><text class="cls-6" transform="translate(541.69 375.05)">800000</text><text class="cls-6" transform="translate(648.25 375.05)">1000000</text><text class="cls-6" transform="translate(757.18 375.05)">1200000</text><path class="cls-7" d="M120.16 363.45h653.55M120.16 363.45v-4.69M229.09 363.45v-4.69M338.01 363.45v-4.69M446.94 363.45v-4.69M555.86 363.45v-4.69M664.79 363.45v-4.69M773.71 363.45v-4.69"/><path class="cls-1" d="M119.04 292.08h8.93v10.06h-8.93z"/><text class="cls-8" transform="translate(43.2 351.24)">COVID-19 (2020)</text><text class="cls-2" transform="translate(57.6 338.26)">Ebola (2014)</text><text class="cls-2" transform="translate(62.4 325.28)">MERS (2012)</text><text class="cls-8" transform="translate(14.4 312.3)">Swine Flu H1N1 (2009)</text><text class="cls-2" transform="translate(62.4 299.32)">SARS (2002)</text><text class="cls-8" transform="translate(33.6 286.33)">HIV / AIDS (1981)</text><text class="cls-2" transform="translate(38.4 273.35)">Rotavirus (1973)</text><text class="cls-2" transform="translate(28.8 260.37)">Hepatitis A (1973)</text><text class="cls-2" transform="translate(28.8 247.39)">Hepatitis B (1965)</text><text class="cls-2" transform="translate(24 234.41)">Dengue Fever (1943)</text><text class="cls-2" transform="translate(38.4 221.43)">Norovirus (1929)</text><text class="cls-2" transform="translate(14.4 208.45)">Whooping Cough (1906)</text><text class="cls-2" transform="translate(19.2 195.47)">Leishmaniasis (1901)</text><text class="cls-2" transform="translate(0 182.49)">Sleeping Sickness (1901)</text><text class="cls-2" transform="translate(24 169.51)">Yellow Fever (1900)</text><text class="cls-2" transform="translate(48 156.53)">Malaria (1897)</text><text class="cls-2" transform="translate(48 143.55)">Cholera (1884)</text><text class="cls-2" transform="translate(24 130.57)">Tuberculosis (1882)</text><text class="cls-2" transform="translate(48 117.59)">Typhoid (1880)</text><text class="cls-2" transform="translate(38.4 104.61)">Pneumonia (1875)</text><text class="cls-2" transform="translate(28.8 91.63)">Shigellosis (1875)</text><text class="cls-2" transform="translate(14.4 78.65)">Echinococcosis (1855)</text><text class="cls-2" transform="translate(33.6 65.67)">Meningitis (1805)</text><text class="cls-2" transform="translate(28.8 52.69)">Chicken Pox (1658)</text><text class="cls-2" transform="translate(24 39.71)">Seasonal Flu (1650)</text><text class="cls-2" transform="translate(52.8 26.73)">Measles (900)</text><path stroke="#6d6e71" stroke-miterlimit="10" fill="none" d="M120.16 363.45V0"/><text transform="translate(401.92 438.36)" font-size="5" fill="#231f20" font-family="DecimaMonoW01-Regular">Lorem ipsum</text><text class="cls-2" transform="translate(120.77 273.06)">+++++++++++++++++++++++++++++++++++++++++++++++++++</text><text class="cls-11" transform="translate(120.75 312.02)">+++++++++++++++++++++++++++++++++++++++++</text><text class="cls-11" transform="translate(120.13 350.95)">+++++++++++++++++++++++++++++++++++++++++++++++++++++++++++++</text><g clip-path="url(#clip-path-2)"><text class="cls-2" transform="translate(119.6 13.35)">+++++++</text></g><g clip-path="url(#clip-path-3)"><text class="cls-2" transform="translate(118.63 26.39)">+++++++++++</text></g><g clip-path="url(#clip-path-4)"><text class="cls-2" transform="translate(120.08 39.24)">+++++++++++++++++++++++++++++++++++++++++++</text></g><g clip-path="url(#clip-path-5)"><text class="cls-2" transform="translate(119.02 52.46)">++++++++</text></g><g clip-path="url(#clip-path-6)"><text class="cls-2" transform="translate(118.48 78.37)">++++++++</text></g><g clip-path="url(#clip-path-7)"><text class="cls-2" transform="translate(118.11 91.34)">+++++++++++++++++++++++++++++++++++++++++++++++++++++++++++++++++++++</text></g><g clip-path="url(#clip-path-8)"><text class="cls-2" transform="translate(119.19 117.26)">+++++++++++++++++</text></g><g clip-path="url(#clip-path-9)"><text class="cls-2" transform="translate(118.5 130.32)">+++++++++++++++++++++++++++++++++++++++++++++++++++++++++++++++++++++++++++++++++++++++++++++++++++++++++++++++++++++++++++++++</text></g><g clip-path="url(#clip-path-10)"><text class="cls-2" transform="translate(117.28 156.28)">++++++++++++++++++++++++++++++++++++++++++++++++++++++++++++++++++++++++++++++++++++</text></g><g clip-path="url(#clip-path-11)"><text class="cls-2" transform="translate(118.97 168.75)">++++++++</text></g><g clip-path="url(#clip-path-12)"><text class="cls-2" transform="translate(118.92 182.12)">++++++++</text></g><g clip-path="url(#clip-path-13)"><text class="cls-2" transform="translate(118.42 195.18)">++++++++</text></g><g clip-path="url(#clip-path-14)"><text class="cls-2" transform="translate(118.99 208.23)">+++++++++++++++++++</text></g><g clip-path="url(#clip-path-15)"><text class="cls-2" transform="translate(118.35 234.1)">++++++++</text></g><g clip-path="url(#clip-path-16)"><text class="cls-11" transform="translate(117.98 285.96)">++++++++++++++++++++++++++++++++++++++++++++++++++++++++++++++++++++++++++++++++++++++++</text></g><g clip-path="url(#clip-path-17)"><text class="cls-2" transform="translate(119.04 298.84)">+</text></g><g clip-path="url(#clip-path-18)"><text class="cls-2" transform="translate(118.69 324.96)">++++++++</text></g><g clip-path="url(#clip-path-19)"><text class="cls-2" transform="translate(119.87 337.92)">++++++++</text></g></svg>