<svg xmlns="http://www.w3.org/2000/svg" xmlns:xlink="http://www.w3.org/1999/xlink" viewBox="0 0 7256.69 4081.89"><defs><linearGradient id="b" x1="3931.26" y1="-1247.78" x2="3158.84" y2="-1247.78" gradientTransform="matrix(0 1 1 0 2963.94 -212.06)" gradientUnits="userSpaceOnUse"><stop offset=".22" stop-color="#fbdde1" stop-opacity=".5"/><stop offset=".56" stop-color="#fbdbdf" stop-opacity=".51"/><stop offset=".69" stop-color="#fad2d8" stop-opacity=".54"/><stop offset=".78" stop-color="#f8c4cb" stop-opacity=".59"/><stop offset=".85" stop-color="#f6b0b9" stop-opacity=".67"/><stop offset=".91" stop-color="#f295a2" stop-opacity=".77"/><stop offset=".96" stop-color="#ee7586" stop-opacity=".89"/><stop offset="1" stop-color="#eb586d"/></linearGradient><linearGradient id="a" x1="4062.48" y1="2946.69" x2="4178.39" y2="2946.69" gradientUnits="userSpaceOnUse"><stop offset="0" stop-color="#fce3e2"/><stop offset=".97" stop-color="#ec5c70"/><stop offset="1" stop-color="#eb586d"/></linearGradient><linearGradient id="c" x1="4061.98" y1="2946.69" x2="4178.89" y2="2946.69" xlink:href="#a"/><linearGradient id="d" x1="6551.8" y1="2944.3" x2="6561.36" y2="2944.3" xlink:href="#a"/></defs><g style="isolation:isolate"><path d="M2963.09 2946.77c-338.14 0-693.21 77.36-1020.89 430.24-321.89 346.64-1074 342.19-1473 342.19v-772.43h2493.89" style="mix-blend-mode:multiply" fill="url(#b)"/><circle cx="4120.43" cy="2946.69" r="118.7" fill="#eb586d" opacity=".1"/><path d="M4120.43 2946.69v-58a58 58 0 11-58 58 58 58 0 0158-58h0z" stroke-miterlimit="10" opacity=".9" fill="url(#a)" stroke="url(#c)"/><path d="M6551.8 2946.69a4.78 4.78 0 119.56 0" stroke="#ddd" stroke-opacity="0" fill="url(#d)"/><path fill="none" stroke="#00586c" stroke-width="18" d="M4235.44 2946.69h-113.09"/></g></svg>