<svg xmlns="http://www.w3.org/2000/svg" xmlns:xlink="http://www.w3.org/1999/xlink" viewBox="0 0 7256.69 4081.89"><defs><linearGradient id="b" x1="3675.13" y1="-1247.78" x2="3417.48" y2="-1247.78" gradientTransform="matrix(0 1 1 0 2963.94 -212.06)" gradientUnits="userSpaceOnUse"><stop offset=".22" stop-color="#fbdde1" stop-opacity=".5"/><stop offset=".56" stop-color="#fbdbdf" stop-opacity=".51"/><stop offset=".69" stop-color="#fad2d8" stop-opacity=".54"/><stop offset=".78" stop-color="#f8c4cb" stop-opacity=".59"/><stop offset=".85" stop-color="#f6b0b9" stop-opacity=".67"/><stop offset=".91" stop-color="#f295a2" stop-opacity=".77"/><stop offset=".96" stop-color="#ee7586" stop-opacity=".89"/><stop offset="1" stop-color="#eb586d"/></linearGradient><linearGradient id="a" x1="4061.96" y1="3205.42" x2="4182.74" y2="3205.42" gradientUnits="userSpaceOnUse"><stop offset="0" stop-color="#fce3e2"/><stop offset=".97" stop-color="#ec5c70"/><stop offset="1" stop-color="#eb586d"/></linearGradient><linearGradient id="c" x1="4061.46" y1="3205.42" x2="4183.24" y2="3205.42" xlink:href="#a"/><linearGradient id="d" x1="6527.63" y1="3188.67" x2="6585.53" y2="3188.67" xlink:href="#a"/></defs><g style="isolation:isolate"><path d="M2963.09 3205.42c-338.14 0-1000.67 42.75-1298.74 152.57-268.22 98.81-796.17 105.08-1195.12 105.08v-257.65h2493.86" style="mix-blend-mode:multiply" fill="url(#b)"/><path fill="none" stroke="#00586c" stroke-width="18" d="M5990.83 3205.42h-1870.4"/><circle cx="4122.35" cy="3205.42" r="141.16" fill="#eb586d" opacity=".1"/><path d="M4122.35 3205.42V3145a60.39 60.39 0 11-60.39 60.39 60.39 60.39 0 0160.39-60.39h0z" stroke-miterlimit="10" fill="url(#a)" stroke="url(#c)"/><path d="M6527.63 3203.15a28.95 28.95 0 0157.9 0" stroke="#ddd" stroke-opacity="0" fill="url(#d)"/></g></svg>