<svg xmlns="http://www.w3.org/2000/svg" viewBox="0 0 7256.69 4081.89"><defs><style>.cls-2,.cls-4,.cls-5{fill:none;stroke-width:4px;stroke:#cdcccc}.cls-4{stroke-dasharray:2 12 .02 1.99}.cls-5{stroke-dasharray:12.01 0 2 12 .02 1.99}</style></defs><g id="percentage"><path d="M2963.09 364.78H469.23" stroke-width="4" stroke="#eb586d" fill="none"/><path class="cls-2" d="M2963.09 3377.01H469.23"/><path stroke-width="10" stroke="#eb586d" fill="none" d="M2963.09 3807.32H469.23"/><path class="cls-2" d="M2963.09 2946.69H469.23M2963.09 2516.37H469.23M2963.09 2086.05H469.23M2963.09 1655.73H469.23M2963.09 1225.42H469.23M2963.09 795.1H469.23M2963.09 709.04h-6"/><path class="cls-4" d="M2957.09 709.04h-14.02"/><path class="cls-5" d="M2941.08 709.04H476.23"/><path class="cls-2" d="M475.23 709.04h-6M2963.09 622.97h-6"/><path class="cls-4" d="M2957.09 622.97h-14.02"/><path class="cls-5" d="M2941.08 622.97H476.23"/><path class="cls-2" d="M475.23 622.97h-6M2963.09 536.91h-6"/><path class="cls-4" d="M2957.09 536.91h-14.02"/><path class="cls-5" d="M2941.08 536.91H476.23"/><path class="cls-2" d="M475.23 536.91h-6M2963.09 450.85h-6"/><path class="cls-4" d="M2957.09 450.85h-14.02"/><path class="cls-5" d="M2941.08 450.85H476.23"/><path class="cls-2" d="M475.23 450.85h-6M2963.09 1139.35h-6"/><path class="cls-4" d="M2957.09 1139.35h-14.02"/><path class="cls-5" d="M2941.08 1139.35H476.23"/><path class="cls-2" d="M475.23 1139.35h-6M2963.09 1053.29h-6"/><path class="cls-4" d="M2957.09 1053.29h-14.02"/><path class="cls-5" d="M2941.08 1053.29H476.23"/><path class="cls-2" d="M475.23 1053.29h-6M2963.09 967.23h-6"/><path class="cls-4" d="M2957.09 967.23h-14.02"/><path class="cls-5" d="M2941.08 967.23H476.23"/><path class="cls-2" d="M475.23 967.23h-6M2963.09 881.16h-6"/><path class="cls-4" d="M2957.09 881.16h-14.02"/><path class="cls-5" d="M2941.08 881.16H476.23"/><path class="cls-2" d="M475.23 881.16h-6M2963.09 1569.67h-6"/><path class="cls-4" d="M2957.09 1569.67h-14.02"/><path class="cls-5" d="M2941.08 1569.67H476.23"/><path class="cls-2" d="M475.23 1569.67h-6M2963.09 1483.61h-6"/><path class="cls-4" d="M2957.09 1483.61h-14.02"/><path class="cls-5" d="M2941.08 1483.61H476.23"/><path class="cls-2" d="M475.23 1483.61h-6M2963.09 1397.54h-6"/><path class="cls-4" d="M2957.09 1397.54h-14.02"/><path class="cls-5" d="M2941.08 1397.54H476.23"/><path class="cls-2" d="M475.23 1397.54h-6M2963.09 1311.48h-6"/><path class="cls-4" d="M2957.09 1311.48h-14.02"/><path class="cls-5" d="M2941.08 1311.48H476.23"/><path class="cls-2" d="M475.23 1311.48h-6M2963.09 1999.99h-6"/><path class="cls-4" d="M2957.09 1999.99h-14.02"/><path class="cls-5" d="M2941.08 1999.99H476.23"/><path class="cls-2" d="M475.23 1999.99h-6M2963.09 1913.93h-6"/><path class="cls-4" d="M2957.09 1913.93h-14.02"/><path class="cls-5" d="M2941.08 1913.93H476.23"/><path class="cls-2" d="M475.23 1913.93h-6M2963.09 1827.86h-6"/><path class="cls-4" d="M2957.09 1827.86h-14.02"/><path class="cls-5" d="M2941.08 1827.86H476.23"/><path class="cls-2" d="M475.23 1827.86h-6M2963.09 1741.8h-6"/><path class="cls-4" d="M2957.09 1741.8h-14.02"/><path class="cls-5" d="M2941.08 1741.8H476.23"/><path class="cls-2" d="M475.23 1741.8h-6M2963.09 2430.31h-6"/><path class="cls-4" d="M2957.09 2430.31h-14.02"/><path class="cls-5" d="M2941.08 2430.31H476.23"/><path class="cls-2" d="M475.23 2430.31h-6M2963.09 2344.24h-6"/><path class="cls-4" d="M2957.09 2344.24h-14.02"/><path class="cls-5" d="M2941.08 2344.24H476.23"/><path class="cls-2" d="M475.23 2344.24h-6M2963.09 2258.18h-6"/><path class="cls-4" d="M2957.09 2258.18h-14.02"/><path class="cls-5" d="M2941.08 2258.18H476.23"/><path class="cls-2" d="M475.23 2258.18h-6M2963.09 2172.12h-6"/><path class="cls-4" d="M2957.09 2172.12h-14.02"/><path class="cls-5" d="M2941.08 2172.12H476.23"/><path class="cls-2" d="M475.23 2172.12h-6M2963.09 2860.62h-6"/><path class="cls-4" d="M2957.09 2860.62h-14.02"/><path class="cls-5" d="M2941.08 2860.62H476.23"/><path class="cls-2" d="M475.23 2860.62h-6M2963.09 2774.56h-6"/><path class="cls-4" d="M2957.09 2774.56h-14.02"/><path class="cls-5" d="M2941.08 2774.56H476.23"/><path class="cls-2" d="M475.23 2774.56h-6M2963.09 2688.5h-6"/><path class="cls-4" d="M2957.09 2688.5h-14.02"/><path class="cls-5" d="M2941.08 2688.5H476.23"/><path class="cls-2" d="M475.23 2688.5h-6M2963.09 2602.43h-6"/><path class="cls-4" d="M2957.09 2602.43h-14.02"/><path class="cls-5" d="M2941.08 2602.43H476.23"/><path class="cls-2" d="M475.23 2602.43h-6M2963.09 3290.94h-6"/><path class="cls-4" d="M2957.09 3290.94h-14.02"/><path class="cls-5" d="M2941.08 3290.94H476.23"/><path class="cls-2" d="M475.23 3290.94h-6M2963.09 3204.88h-6"/><path class="cls-4" d="M2957.09 3204.88h-14.02"/><path class="cls-5" d="M2941.08 3204.88H476.23"/><path class="cls-2" d="M475.23 3204.88h-6M2963.09 3118.82h-6"/><path class="cls-4" d="M2957.09 3118.82h-14.02"/><path class="cls-5" d="M2941.08 3118.82H476.23"/><path class="cls-2" d="M475.23 3118.82h-6M2963.09 3032.75h-6"/><path class="cls-4" d="M2957.09 3032.75h-14.02"/><path class="cls-5" d="M2941.08 3032.75H476.23"/><path class="cls-2" d="M475.23 3032.75h-6M2963.09 3721.26h-6"/><path class="cls-4" d="M2957.09 3721.26h-14.02"/><path class="cls-5" d="M2941.08 3721.26H476.23"/><path class="cls-2" d="M475.23 3721.26h-6M2963.09 3635.2h-6"/><path class="cls-4" d="M2957.09 3635.2h-14.02"/><path class="cls-5" d="M2941.08 3635.2H476.23"/><path class="cls-2" d="M475.23 3635.2h-6M2963.09 3549.13h-6"/><path class="cls-4" d="M2957.09 3549.13h-14.02"/><path class="cls-5" d="M2941.08 3549.13H476.23"/><path class="cls-2" d="M475.23 3549.13h-6M2963.09 3463.07h-6"/><path class="cls-4" d="M2957.09 3463.07h-14.02"/><path class="cls-5" d="M2941.08 3463.07H476.23"/><path class="cls-2" d="M475.23 3463.07h-6"/></g></svg>