<svg xmlns="http://www.w3.org/2000/svg" xmlns:xlink="http://www.w3.org/1999/xlink" viewBox="0 0 7256.69 4081.89"><defs><linearGradient id="b" x1="4024.71" y1="-1247.78" x2="3330.88" y2="-1247.78" gradientTransform="matrix(0 1 1 0 2963.94 -212.06)" gradientUnits="userSpaceOnUse"><stop offset=".22" stop-color="#fbdde1" stop-opacity=".5"/><stop offset=".56" stop-color="#fbdbdf" stop-opacity=".51"/><stop offset=".69" stop-color="#fad2d8" stop-opacity=".54"/><stop offset=".78" stop-color="#f8c4cb" stop-opacity=".59"/><stop offset=".85" stop-color="#f6b0b9" stop-opacity=".67"/><stop offset=".91" stop-color="#f295a2" stop-opacity=".77"/><stop offset=".96" stop-color="#ee7586" stop-opacity=".89"/><stop offset="1" stop-color="#eb586d"/></linearGradient><linearGradient id="a" x1="4068.6" y1="3118.82" x2="4172.27" y2="3118.82" gradientUnits="userSpaceOnUse"><stop offset="0" stop-color="#fce3e2"/><stop offset=".97" stop-color="#ec5c70"/><stop offset="1" stop-color="#eb586d"/></linearGradient><linearGradient id="c" x1="4068.1" y1="3118.82" x2="4172.77" y2="3118.82" xlink:href="#a"/><linearGradient id="d" x1="6507.88" y1="3094.47" x2="6605.27" y2="3094.47" xlink:href="#a"/></defs><g style="isolation:isolate"><path d="M2963.09 3118.82c-338.14 0-724 191.87-935.74 410.59-355.24 366.9-1159.18 272.28-1558.12 272.28v-682.87h2493.86" style="mix-blend-mode:multiply" fill="url(#b)"/><circle cx="4120.43" cy="3118.82" r="118.7" fill="#eb586d" opacity=".1"/><path d="M4120.43 3118.82V3067a51.84 51.84 0 11-51.83 51.84 51.84 51.84 0 0151.83-51.84h0z" stroke-miterlimit="10" fill="url(#a)" stroke="url(#c)"/><path fill="none" stroke="#00586c" stroke-width="18" d="M5479.38 3118.82H4122.35"/><path d="M6507.88 3118.82a48.7 48.7 0 1197.39 0" stroke="#ddd" stroke-opacity="0" fill="url(#d)"/></g></svg>